<svg xmlns="http://www.w3.org/2000/svg" width="70" height="42" viewBox="0 0 179 79" fill="none"><path d="M156.34 26.83C156.36 27.29 156.34 27.87 156.12 28.41C156.08 28.51 156.06 28.64 156.07 28.75C156.1 29.31 155.96 29.8 155.69 30.33C155.33 31.04 155.35 31.9 155.54 32.64C155.74 33.46 155.45 34.04 155.03 34.62C154.81 34.94 154.66 35.27 154.67 35.64C154.69 36.26 154.55 36.84 154.21 37.35C153.69 38.14 153.6 39.03 153.58 39.93C153.56 40.52 153.55 41.04 152.98 41.45C152.63 41.7 152.44 42.17 152.43 42.67C152.41 43.41 152.26 44.13 151.75 44.72C151.51 45 151.47 45.35 151.48 45.7C151.5 46.22 151.4 46.72 151.11 47.16C150.54 48 150.44 48.96 150.39 49.93C150.35 50.63 150.16 51.26 149.74 51.79C149.47 52.13 149.37 52.46 149.39 52.87C149.42 53.41 149.3 53.88 148.8 54.18C148.72 54.23 148.64 54.29 148.6 54.37C148.07 55.35 147.15 55.2 146.29 55.16C146.04 55.15 145.8 55.06 145.54 55.04C145.23 55.02 144.95 54.9 144.83 54.58C144.74 54.31 144.49 54.2 144.29 54.06C144 53.85 143.85 53.61 143.85 53.25C143.85 52.44 143.82 51.63 143.99 50.83C144.08 50.42 144.29 50.05 144.55 49.73C144.76 49.48 144.84 49.21 144.82 48.9C144.79 48.24 144.93 47.61 145.33 47.07C145.8 46.44 145.91 45.71 145.9 44.98C145.9 44.06 146.05 43.24 146.67 42.54C146.88 42.3 146.91 41.99 146.88 41.69C146.84 41.12 146.94 40.58 147.28 40.11C147.75 39.44 147.85 38.67 147.96 37.89C148 37.58 148.1 37.31 148.28 37.06C148.8 36.34 148.99 35.51 148.95 34.64C148.92 34 148.99 33.38 149.39 32.88C149.89 32.25 149.87 31.51 149.92 30.79C149.96 30.08 149.92 29.36 149.95 28.64C149.97 28 150.03 27.35 150.22 26.73C150.28 26.53 150.34 26.32 150.46 26.16C150.71 25.81 150.84 25.43 150.91 25.01C150.97 24.68 151.09 24.4 151.39 24.21C151.51 24.14 151.62 24.04 151.69 23.93C151.95 23.52 152.26 23.24 152.81 23.26C153.5 23.29 154.2 23.19 154.72 23.83C154.9 24.06 155.16 24.23 155.4 24.42C156.02 24.88 156.44 25.46 156.33 26.3C156.31 26.44 156.33 26.58 156.33 26.84L156.34 26.83Z" fill="black"></path><path d="M130.68 46.85C130.77 45.37 130.61 43.9 130.52 42.43C130.46 41.55 130.43 40.65 130.08 39.79C129.73 38.93 129.78 37.98 129.72 37.06C129.66 36.14 129.75 35.22 129.58 34.3C129.52 34 129.45 33.72 129.32 33.45C129.1 33.01 129 32.54 129.01 32.05C129.01 31.89 129.01 31.73 129.09 31.58C129.51 30.78 130.05 30.08 130.75 29.5C130.97 29.32 131.23 29.36 131.48 29.36C132.12 29.36 132.73 29.43 133.16 29.99C133.17 30.01 133.19 30.03 133.21 30.04C133.88 30.33 134.26 30.81 134.33 31.55C134.35 31.77 134.56 31.89 134.7 32.04C135.06 32.43 135.24 32.88 135.23 33.42C135.22 34.32 135.31 35.21 135.68 36.05C135.71 36.11 135.75 36.18 135.74 36.25C135.72 37.2 136.08 38.1 136.08 39.05C136.08 40.11 136.08 41.18 136.08 42.24C136.08 43.51 136.16 44.78 136.36 46.02C136.48 46.74 136.75 47.44 136.97 48.14C137.35 49.35 137.11 50.46 136.47 51.51C136.31 51.77 136.26 52.07 136.2 52.36C136.13 52.68 136.01 52.97 135.66 53.11C135.54 53.16 135.41 53.25 135.32 53.35C134.77 53.99 134.04 53.99 133.29 53.96C133.15 53.96 132.97 53.98 132.9 53.86C132.51 53.2 131.63 52.92 131.5 52.04C131.44 51.62 131.18 51.24 131.03 50.84C130.57 49.62 130.7 48.38 130.66 47.14C130.66 47.05 130.66 46.96 130.66 46.86L130.68 46.85Z" fill="black"></path><path d="M66.74 25.51C66.15 25.86 65.87 26.28 65.89 26.91C65.96 28.92 65.61 30.91 65.36 32.89C65.36 32.91 65.35 32.94 65.36 32.96C65.47 34.28 65.01 35.51 64.77 36.77C64.69 37.18 64.67 37.59 64.62 38C64.44 39.42 63.96 40.78 63.74 42.19C63.62 42.96 63.53 43.74 63.42 44.52C63.4 44.68 63.39 44.87 63.29 44.98C62.68 45.75 62.81 46.69 62.74 47.57C62.66 48.48 62.51 49.34 62.1 50.17C61.79 50.79 61.61 51.46 61.59 52.16C61.56 52.83 61.43 53.5 61.14 54.1C60.81 54.78 60.69 55.5 60.64 56.23C60.59 56.89 60.46 57.5 59.97 58C59.81 58.16 59.67 58.36 59.58 58.57C59.31 59.18 58.8 59.41 58.2 59.46C57.23 59.54 56.37 59.35 55.56 58.69C54.82 58.1 54.52 57.46 54.47 56.53C54.43 55.66 54.37 54.78 54.37 53.9C54.37 52.95 54.27 52.01 54.11 51.08C54.09 50.97 54.09 50.84 54.03 50.75C53.66 50.21 53.63 49.56 53.58 48.96C53.46 47.61 53.27 46.26 53.28 44.89C53.28 44.44 53.17 44.02 53.04 43.6C52.8 42.84 52.68 42.08 52.7 41.28C52.72 40.68 52.6 40.09 52.45 39.51C52.37 39.21 52.2 39.16 51.97 39.36C51.79 39.52 51.66 39.73 51.64 39.95C51.61 40.39 51.46 40.81 51.47 41.25C51.49 41.8 51.29 42.28 50.92 42.69C50.73 42.9 50.67 43.18 50.6 43.44C50.41 44.2 50.21 44.96 49.92 45.69C49.73 46.17 49.87 46.55 50.13 46.98C50.67 47.88 51.39 48.7 51.55 49.79C51.63 50.34 51.73 50.88 51.95 51.39C52.08 51.7 51.96 51.95 51.71 52.11C51.4 52.31 51.08 52.47 50.69 52.52C49.96 52.61 49.23 52.72 48.5 52.82C48 52.89 47.67 53.18 47.44 53.62C47.26 53.97 47.1 54.32 46.82 54.62C46.68 54.77 46.61 54.97 46.6 55.19C46.56 56.32 45.48 57.24 44.29 57.37C43.27 57.48 42.38 57.21 41.63 56.49C41.39 56.26 41.27 55.97 41.18 55.65C41.02 55.03 40.8 54.94 40.16 55.06C39.37 55.21 38.57 55.32 37.78 55.43C37.3 55.5 36.82 55.58 36.4 55.83C35.77 56.2 35.09 56.37 34.36 56.42C33.92 56.45 33.47 56.57 33.11 56.8C32.24 57.36 31.25 57.59 30.31 57.98C29.71 58.22 29.1 58.42 28.46 58.53C28.13 58.58 27.82 58.78 27.52 58.95C27.09 59.19 26.66 59.37 26.15 59.35C25.78 59.34 25.39 59.45 25.12 59.7C24.61 60.16 23.99 60.3 23.35 60.43C22.67 60.57 22.02 60.73 21.45 61.19C21.1 61.47 20.62 61.58 20.21 61.79C19.87 61.97 19.58 62.25 19.2 62.37C17.94 62.76 16.84 63.48 15.72 64.16C15.6 64.23 15.48 64.3 15.35 64.35C14.7 64.58 14.05 64.82 13.51 65.27C13.48 65.3 13.43 65.33 13.39 65.33C12.26 65.43 11.46 66.25 10.48 66.68C10.3 66.76 10.17 66.88 10.03 67C9.75001 67.25 9.46001 67.48 9.11001 67.6C8.77001 67.71 8.50001 67.94 8.25001 68.17C7.53001 68.85 6.71001 69.37 5.73001 69.51C4.15001 69.74 2.60001 69.76 1.22001 68.74C1.07001 68.63 0.900007 68.52 0.810007 68.37C0.160007 67.22 -0.349993 66.03 0.310007 64.7C0.550007 64.21 0.610007 63.68 0.660007 63.16C0.760007 62.17 1.01001 61.21 1.13001 60.23C1.13001 60.21 1.13001 60.18 1.14001 60.16C1.81001 58.83 1.73001 57.33 2.03001 55.92C2.14001 55.39 2.24001 54.84 2.23001 54.28C2.22001 53.55 2.27001 52.83 2.48001 52.1C2.82001 50.92 2.75001 49.68 2.50001 48.47C2.39001 47.94 2.05001 47.55 1.59001 47.31C1.19001 47.11 0.960007 46.79 0.770007 46.42C0.600007 46.09 0.450007 45.76 0.250007 45.44C-0.00999282 45.04 7.18236e-06 44.61 0.270007 44.21C0.310007 44.15 0.370007 44.1 0.390007 44.04C0.740007 43.08 1.35001 42.32 2.16001 41.72C2.62001 41.38 2.75001 40.88 2.81001 40.33C2.97001 39.02 2.91001 37.7 2.93001 36.39C2.93001 35.88 2.89001 35.37 3.04001 34.87C3.08001 34.74 3.07001 34.59 3.05001 34.46C2.79001 32.64 2.99001 30.81 2.92001 28.99C2.90001 28.3 2.92001 27.61 2.81001 26.92C2.68001 26.12 2.81001 25.29 2.99001 24.52C3.14001 23.85 3.67001 23.28 4.20001 22.79C4.33001 22.67 4.51001 22.6 4.61001 22.43C4.91001 21.92 5.41001 21.78 5.96001 21.74C6.89001 21.67 7.80001 21.9 8.72001 21.92C8.96001 21.92 9.25001 22.02 9.43001 22.17C9.98001 22.63 10.67 22.89 11.17 23.41C11.28 23.52 11.41 23.63 11.55 23.71C12.46 24.26 13.24 24.99 14.02 25.71C14.36 26.03 14.74 26.27 15.08 26.59C16.05 27.51 16.81 28.62 17.81 29.51C18.36 29.99 18.99 30.39 19.45 30.97C20.01 31.69 20.84 32.14 21.32 32.96C21.59 33.42 22.06 33.78 22.46 34.16C23.24 34.91 23.94 35.74 24.85 36.36C25.24 36.62 25.53 37.05 25.81 37.44C26.5 38.4 27.41 39.01 28.57 39.23C29.04 39.32 29.4 39.56 29.7 39.96C29.91 40.25 29.97 40.53 29.97 40.86C29.97 42.66 29.97 44.47 29.97 46.27C29.97 46.94 29.7 47.26 29.02 47.27C27.91 47.29 26.81 47.51 25.7 47.42C24.73 47.33 23.83 47.65 22.91 47.86C22.61 47.93 22.32 47.97 22.02 47.96C21.16 47.93 20.31 47.96 19.48 48.2C19.35 48.24 19.21 48.24 19.07 48.24C16.39 48.24 13.72 48.48 11.04 48.38C10.88 48.38 10.71 48.37 10.55 48.38C10.03 48.44 9.77001 48.7 9.69001 49.21C9.67001 49.32 9.69001 49.45 9.64001 49.55C9.25001 50.57 9.36001 51.64 9.27001 52.69C9.11001 54.55 9.20001 56.43 8.75001 58.26C8.67001 58.58 8.65001 58.93 9.00001 59.12C9.32001 59.29 9.67001 59.24 9.91001 59C10.36 58.56 10.93 58.39 11.5 58.22C11.83 58.12 12.14 57.97 12.42 57.76C12.72 57.54 13.04 57.36 13.4 57.25C13.63 57.18 13.82 57.06 14 56.91C14.3 56.65 14.65 56.49 15.05 56.41C15.36 56.35 15.66 56.22 15.93 56.02C17 55.24 18.19 54.69 19.42 54.23C19.57 54.17 19.75 54.14 19.86 54.04C20.39 53.55 21.06 53.5 21.71 53.37C22.57 53.2 23.41 53 24.2 52.59C24.97 52.19 25.85 52.01 26.59 51.53C26.73 51.44 26.9 51.45 27.06 51.43C27.96 51.37 28.81 51.18 29.6 50.67C30.03 50.4 30.52 50.13 31.09 50.17C31.16 50.17 31.23 50.17 31.3 50.15C32.56 49.64 33.93 49.42 35.14 48.79C35.99 48.34 36.88 48.2 37.79 48.12C38.45 48.06 39.08 47.97 39.65 47.66C40.24 47.34 40.86 47.19 41.5 47.14C42.39 47.07 43.13 46.4 43.24 45.31C43.33 44.41 43.5 43.54 43.9 42.71C44.11 42.27 44.15 41.78 44.21 41.3C44.4 39.68 44.53 38.05 44.97 36.46C45.18 35.7 45.26 34.93 45.34 34.14C45.42 33.3 45.53 32.46 45.86 31.65C46.25 30.69 46.4 29.65 46.56 28.63C46.59 28.43 46.57 28.21 46.68 28.02C47.18 27.18 47.28 26.22 47.36 25.29C47.44 24.33 47.68 23.43 47.95 22.53C48.18 21.75 48.27 20.95 48.36 20.15C48.43 19.54 48.55 18.98 48.88 18.45C49.18 17.97 49.2 17.39 49.3 16.85C49.45 15.94 49.65 15.06 50 14.19C50.3 13.45 50.41 12.63 50.58 11.85C50.72 11.23 51.05 10.7 51.26 10.11C51.38 9.78 51.66 9.54 51.99 9.54C53.08 9.54 54.12 9.16 55.22 9.21C55.6 9.23001 55.94 9.34 56.29 9.46C57.25 9.81001 57.49 10.59 57.52 11.5C57.55 12.36 57.55 13.21 57.54 14.07C57.53 15.06 57.63 16.05 57.76 17.03C57.84 17.6 57.85 18.18 57.74 18.76C57.54 19.84 57.57 20.91 57.7 21.99C57.82 22.9 57.95 23.82 57.93 24.74C57.91 25.64 57.93 26.54 57.93 27.45C57.93 28.17 57.96 28.87 58.16 29.57C58.32 30.12 58.24 30.72 58.23 31.3C58.2 32.52 58.16 33.75 58.36 34.96C58.41 35.26 58.46 35.55 58.61 35.82C58.76 36.08 59.01 36.08 59.13 35.82C59.26 35.55 59.32 35.25 59.32 34.95C59.32 33.19 59.58 31.46 59.84 29.73C59.95 29.03 59.92 28.31 60 27.6C60.08 26.84 60.26 26.1 60.34 25.35C60.38 24.98 60.45 24.62 60.43 24.25C60.36 23.13 60.64 22.05 60.75 20.95C60.87 19.64 61.12 18.35 61.28 17.05C61.42 15.93 61.43 14.8 61.54 13.67C61.59 13.14 61.78 12.64 61.93 12.13C62.14 11.4 62.33 10.66 62.55 9.93001C62.64 9.62 62.77 9.32 63.02 9.09C63.37 8.77001 63.48 8.35 63.48 7.9C63.48 7.35 63.63 6.85 63.97 6.41C64.28 6.01 64.36 5.53 64.44 5.05C64.53 4.52 64.67 4.01 65.1 3.64C65.17 3.58 65.24 3.51 65.27 3.42C65.55 2.57 66.21 1.96 66.57 1.16C66.73 0.800004 67.03 0.610004 67.45 0.620004C68.81 0.640004 70.18 0.620004 71.54 0.640004C72.27 0.650004 72.6 0.980004 72.6 1.71C72.6 2.7 72.61 3.69 72.53 4.69C72.43 5.91 72.43 7.14 72.49 8.36C72.67 11.89 72.53 15.43 72.67 18.96C72.78 21.64 72.72 24.32 72.78 27C72.78 27.18 72.76 27.38 72.81 27.55C73.18 28.82 73.1 30.1 72.93 31.4C72.8 32.42 73.08 33.41 73.22 34.42C73.36 35.51 73.64 36.58 73.61 37.7C73.55 39.41 73.79 41.1 73.97 42.8C74.06 43.69 74.03 44.6 74.04 45.5C74.04 45.96 74.08 46.42 74.14 46.88C74.31 48.18 74.43 49.49 74.59 50.79C74.74 52.02 74.96 53.25 75.05 54.49C75.12 55.49 75.43 56.42 75.62 57.39C75.81 58.3 75.86 59.26 75.81 60.21C75.76 61.1 75.91 61.95 76.28 62.77C76.41 63.06 76.47 63.39 76.5 63.71C76.65 65.22 76.78 66.74 76.93 68.25C77.01 68.98 77.34 69.66 77.41 70.41C77.48 71.07 77.59 71.73 77.63 72.4C77.7 73.55 77.83 74.69 77.97 75.84C78.01 76.16 78.03 76.49 78.01 76.81C77.97 77.36 77.67 77.65 77.12 77.66C75.87 77.67 74.62 77.65 73.38 77.66C72.98 77.66 72.71 77.46 72.52 77.17C72.3 76.85 72.12 76.49 72.08 76.09C71.93 74.69 71.79 73.3 71.65 71.9C71.56 70.96 71.58 70.01 71.38 69.08C71.35 68.95 71.33 68.8 71.27 68.68C70.81 67.67 70.68 66.59 70.71 65.51C70.74 64.4 70.55 63.35 70.14 62.33C70.04 62.07 70 61.8 69.98 61.52C69.86 60.19 69.89 58.84 69.55 57.54C69.37 56.86 69.51 56.15 69.3 55.49C68.94 54.37 69.15 53.14 68.66 52.04C68.62 51.96 68.61 51.86 68.62 51.77C68.68 50.7 68.46 49.65 68.46 48.59C68.46 47.02 68.36 45.46 68.22 43.9C68.16 43.21 68.08 42.55 67.85 41.88C67.66 41.35 67.67 40.75 67.65 40.17C67.62 39.48 67.63 38.78 67.63 38.09C67.63 36.96 67.5 35.84 67.42 34.71C67.33 33.58 67.36 32.45 67.37 31.31C67.37 30.54 67.27 29.8 67.03 29.06C66.86 28.53 66.82 27.98 66.83 27.42C66.83 26.8 66.88 26.18 66.7 25.49L66.74 25.51ZM9.71001 33.57C9.71001 34.84 9.71001 36.11 9.71001 37.38C9.71001 38.05 9.90001 38.28 10.55 38.45C10.93 38.55 11.33 38.53 11.72 38.53C13.98 38.55 16.24 38.47 18.5 38.39C18.8 38.38 19.1 38.35 19.38 38.23C19.91 38 20.03 37.58 19.64 37.14C19.43 36.91 19.25 36.68 19.17 36.39C19.13 36.24 19.02 36.16 18.9 36.09C18.58 35.9 18.38 35.57 18.11 35.35C17.54 34.89 17.12 34.28 16.52 33.83C16.08 33.5 15.68 33.11 15.35 32.67C14.85 32 14.22 31.48 13.62 30.92C13.18 30.51 12.63 30.16 12.36 29.66C11.99 29 11.4 28.84 10.82 28.6C10.39 28.42 10.15 28.55 9.92001 28.96C9.77001 29.23 9.72001 29.52 9.73001 29.83C9.73001 31.08 9.73001 32.32 9.73001 33.57H9.71001ZM66.65 25.26C67.2 24.8 67.31 24.33 67.24 23.8C67.23 23.71 67.2 23.61 67.1 23.58C67 23.56 66.93 23.62 66.9 23.72C66.76 24.18 66.64 24.63 66.65 25.26Z" fill="black"></path><path d="M95.6 29.5C95.48 28.54 95.74 27.73 95.71 26.9C95.69 26.49 95.83 26.13 95.99 25.77C96.28 25.13 96.43 24.46 96.4 23.75C96.35 22.18 96.53 20.61 96.59 19.04C96.63 18.02 97 17.02 97.24 16.01C97.3 15.74 97.39 15.48 97.38 15.2C97.34 14.16 97.42 13.12 97.54 12.09C97.6 11.56 97.77 11.05 98.09 10.62C98.31 10.32 98.47 10 98.5 9.61C98.54 9.16 98.77 8.78 99.09 8.46C99.36 8.2 99.49 7.91 99.45 7.53C99.39 6.89 99.58 6.3 99.88 5.74C100.16 5.23 100.41 4.71 100.46 4.12C100.46 4.1 100.46 4.07 100.48 4.05C100.98 3.21 101.45 2.35 102 1.54C102.19 1.26 102.46 1.04 102.61 0.719996C102.79 0.329996 103.1 0.139996 103.53 0.069996C104.17 -0.030004 104.8 -0.040004 105.45 0.029996C106.25 0.119996 107.07 0.059996 107.87 0.069996C108.1 0.069996 108.33 0.069996 108.56 0.069996C109.28 0.119996 109.67 0.489996 109.69 1.21C109.72 2 109.71 2.78 109.71 3.57C109.71 8.75 109.71 13.93 109.73 19.11C109.73 19.84 109.81 20.58 109.95 21.31C110.01 21.6 109.99 21.91 109.99 22.21C109.99 23.36 109.99 24.51 109.99 25.71C110.41 25.67 110.61 25.45 110.66 25.15C110.72 24.79 110.92 24.51 111.11 24.23C111.35 23.89 111.62 23.57 111.73 23.16C111.73 23.14 111.75 23.11 111.76 23.1C112.43 22.58 112.69 21.77 113.19 21.12C113.41 20.84 113.59 20.55 113.72 20.23C113.91 19.77 114.22 19.48 114.71 19.34C115.7 19.07 116.5 18.39 117.46 18.06C118.08 17.32 119.1 17.25 119.81 16.66C119.88 16.6 119.96 16.53 120.04 16.52C121.14 16.38 121.95 15.64 122.91 15.2C123.12 15.1 123.31 14.98 123.49 14.83C123.89 14.51 124.33 14.27 124.84 14.16C124.91 14.15 124.98 14.13 125.04 14.09C125.9 13.46 126.99 13.25 127.84 12.61C128.26 12.29 128.72 12.2 129.19 12.17C130.9 12.06 132.57 11.77 134.23 11.4C134.92 11.25 135.63 11.15 136.34 11.05C136.62 11.01 136.78 10.88 136.96 10.69C137.65 9.96 138.31 9.16 139.12 8.58C139.93 8.01 140.56 7.13 141.64 6.97C141.81 6.94 141.96 6.8 142.11 6.69C142.52 6.37 142.96 6.15 143.47 6.03C143.74 5.97 143.99 5.87 144.24 5.73C145.06 5.27 145.95 5.07 146.89 5.06C148.11 5.05 149.34 5.03 150.55 5.21C150.94 5.27 151.35 5.38 151.63 5.63C152.15 6.09 152.76 6.13 153.37 6.17C154.17 6.23 154.91 6.39 155.61 6.79C156.27 7.16 157.03 7.19 157.76 7.25C158.26 7.29 158.71 7.39 159.12 7.68C159.42 7.89 159.75 8.04 160.12 8.13C160.57 8.24 160.95 8.47 161.23 8.89C161.58 9.43 162.16 9.77 162.58 10.26C163.16 10.94 163.86 11.5 164.47 12.16C164.87 12.59 165.28 13.03 165.77 13.38C166.07 13.59 166.28 13.88 166.46 14.22C166.73 14.72 167.14 15.15 167.57 15.53C167.6 15.56 167.65 15.58 167.68 15.61C168.41 16.36 169.01 17.24 169.91 17.85C170.21 18.05 170.38 18.49 170.41 18.89C170.45 19.31 170.65 19.62 170.93 19.91C171.19 20.18 171.41 20.47 171.41 20.88C171.41 21.17 171.63 21.33 171.81 21.5C172.18 21.84 172.44 22.23 172.52 22.73C172.57 23.01 172.74 23.23 172.92 23.45C173.28 23.86 173.51 24.33 173.48 24.9C173.47 25.15 173.55 25.34 173.73 25.52C174.11 25.9 174.39 26.34 174.55 26.86C174.62 27.1 174.79 27.31 174.91 27.53C175.16 27.97 175.41 28.4 175.46 28.93C175.49 29.28 175.63 29.62 175.89 29.92C176.44 30.57 176.77 31.37 177.31 32.03C177.5 32.25 177.51 32.54 177.5 32.82C177.48 33.25 177.63 33.59 177.95 33.86C178.35 34.2 178.51 34.63 178.48 35.15C178.45 35.66 178.44 36.17 178.48 36.68C178.55 37.59 178.27 38.41 177.83 39.18C177.7 39.41 177.62 39.64 177.63 39.9C177.64 41.08 177.46 42.25 177.5 43.43C177.5 43.71 177.49 43.98 177.36 44.24C176.61 45.74 176.43 47.37 176.42 49.01C176.42 49.83 176.24 50.56 175.85 51.26C175.6 51.71 175.42 52.18 175.43 52.7C175.43 52.92 175.35 53.11 175.23 53.28C174.76 53.92 174.43 54.68 173.7 55.12C173.34 55.34 173.04 55.7 172.78 56.05C172.37 56.59 171.81 56.96 171.35 57.44C171.21 57.59 171.04 57.72 170.86 57.81C170.18 58.15 169.7 58.7 169.19 59.23C169.08 59.35 168.98 59.5 168.85 59.57C167.82 60.1 167.18 61.08 166.27 61.76C165.92 62.02 165.53 62.21 165.19 62.5C164.79 62.84 164.33 63.1 164.02 63.55C163.9 63.72 163.72 63.83 163.53 63.92C163.06 64.13 162.63 64.39 162.22 64.69C162.03 64.83 161.83 64.94 161.59 64.97C161.29 65.02 161.01 65.15 160.77 65.32C160.1 65.79 159.34 65.9 158.55 65.96C157.22 66.07 155.88 66.04 154.55 66.23C154.25 66.27 153.95 66.32 153.68 66.44C152.53 66.93 151.33 67.08 150.09 67.06C149.48 67.06 148.89 67.16 148.37 67.49C147.84 67.82 147.27 67.9 146.65 67.92C145.64 67.96 144.63 68.09 143.62 68.14C142.75 68.18 141.87 68.23 140.99 68.09C140.79 68.06 140.58 68.04 140.37 68.05C138.8 68.09 137.24 67.9 135.71 67.57C135.43 67.51 135.16 67.5 134.89 67.49C134.61 67.49 134.34 67.49 134.07 67.39C133.37 67.14 132.62 67.11 131.89 67.07C130.94 67.03 129.99 67.08 129.05 67.05C128.2 67.02 127.35 66.95 126.51 66.82C126.25 66.78 126.01 66.71 125.79 66.58C125.07 66.17 124.28 65.88 123.64 65.34C123.37 65.12 123.05 65.07 122.74 65C122.3 64.91 121.9 64.73 121.54 64.49C121.25 64.29 120.94 64.15 120.61 64.05C120.04 63.88 119.45 63.76 119.02 63.28C118.83 63.07 118.54 63.03 118.25 63.02C117.54 62.99 116.93 62.69 116.31 62.37C115.37 61.88 114.57 61.15 113.52 60.87C113.24 60.8 113.15 60.45 112.82 60.45C112.69 60.92 112.99 61.27 113.19 61.6C113.62 62.31 113.67 63.08 113.71 63.86C113.77 64.92 113.8 65.98 113.85 67.04C113.87 67.42 114 67.76 114.16 68.09C114.51 68.78 114.69 69.5 114.69 70.29C114.69 71.51 114.86 72.73 114.82 73.96C114.81 74.41 115 74.82 115.12 75.23C115.3 75.87 115.24 76.52 115.23 77.16C115.23 77.6 114.85 77.83 114.51 78.02C114.19 78.2 113.83 78.29 113.45 78.29C112.27 78.29 111.09 78.33 109.91 78.27C108.57 78.2 108.04 77.64 107.74 76.36C107.6 75.77 107.63 75.16 107.63 74.57C107.63 73.46 107.53 72.36 107.48 71.25C107.44 70.42 107.18 69.61 106.89 68.84C106.65 68.2 106.6 67.54 106.53 66.88C106.49 66.49 106.49 66.09 106.52 65.7C106.6 64.61 106.47 63.59 105.84 62.66C105.72 62.49 105.68 62.28 105.67 62.07C105.63 61.12 105.57 60.18 105.56 59.24C105.56 58.33 105.37 57.47 105.15 56.59C104.86 55.44 104.63 54.26 104.56 53.06C104.49 51.88 104.5 50.71 104.42 49.53C104.31 47.95 104.16 46.37 103.97 44.8C103.83 43.68 103.71 42.56 103.54 41.45C103.48 41.06 103.48 40.67 103.48 40.28C103.48 39.22 103.48 38.15 103.48 37.09C103.48 36.24 103.35 35.39 103.26 34.55C103.13 33.27 102.78 32 102.93 30.7C102.94 30.57 102.96 30.43 102.81 30.26C102.74 30.56 102.63 30.83 102.64 31.08C102.68 32.15 102.49 33.2 102.5 34.26C102.51 35.06 102.36 35.82 102.01 36.53C101.76 37.04 101.67 37.57 101.64 38.13C101.58 39.37 101.53 40.65 101.06 41.8C100.65 42.8 100.59 43.8 100.54 44.83C100.54 45.04 100.51 45.25 100.39 45.43C100 46.08 99.94 46.8 99.83 47.54C99.64 48.87 99.61 50.26 98.8 51.44C98.62 51.7 98.59 51.99 98.6 52.3C98.64 53.41 98.41 54.46 97.84 55.42C97.67 55.71 97.61 56.02 97.62 56.35C97.65 57.24 97.41 58.04 96.78 58.69C96.63 58.84 96.53 59.02 96.43 59.2C96.16 59.72 95.69 59.96 95.13 59.99C94.44 60.02 93.74 60.02 93.05 59.99C92.51 59.96 92.01 59.79 91.64 59.35C91.52 59.21 91.4 59.04 91.25 58.96C90.41 58.53 90.32 57.75 90.3 56.95C90.28 56.26 90.27 55.57 90.07 54.9C89.98 54.6 90.01 54.26 90.03 53.94C90.09 53.05 89.96 52.18 89.69 51.35C89.4 50.45 89.42 49.53 89.34 48.62C89.26 47.73 89.25 46.84 89.11 45.94C88.99 45.14 88.86 44.36 88.56 43.6C88.46 43.34 88.47 43.02 88.42 42.63C87.75 43.28 87.38 43.96 87.38 44.79C87.38 45.3 87.28 45.75 86.95 46.14C86.5 46.66 86.41 47.31 86.41 47.95C86.41 48.52 86.3 49.04 85.96 49.52C85.68 49.92 85.47 50.36 85.37 50.84C85.29 51.19 85.08 51.47 84.88 51.75C84.58 52.16 84.43 52.6 84.45 53.11C84.49 53.87 84.34 54.57 83.84 55.18C83.56 55.52 83.47 55.97 83.34 56.39C83.05 57.29 82.28 57.87 81.34 57.94C80.7 57.99 80.07 58.03 79.42 57.96C78.15 57.83 77.37 57.16 77.11 55.88C76.98 55.24 76.93 54.62 77.08 53.96C77.17 53.56 77.13 53.13 77.12 52.72C77.1 51.43 77.31 50.2 77.95 49.06C78.1 48.8 78.24 48.52 78.2 48.21C78.1 47.34 78.41 46.58 78.8 45.83C79.09 45.28 79.2 44.71 79.21 44.1C79.21 43.47 79.31 42.85 79.61 42.29C80.14 41.3 80.23 40.23 80.29 39.14C80.33 38.36 80.23 37.57 80.42 36.79C80.5 36.47 80.61 36.16 80.75 35.88C81.18 35 81.26 34.06 81.26 33.12C81.26 32.29 81.37 31.51 81.8 30.79C82.23 30.05 82.3 29.2 82.33 28.38C82.36 27.6 82.71 26.97 82.97 26.29C83.14 25.87 83.2 25.46 83.23 25.02C83.29 24.06 83.27 23.08 83.61 22.16C83.7 21.92 83.8 21.69 83.91 21.46C84.05 21.14 84.21 20.82 84.2 20.47C84.16 19.33 84.45 18.29 84.96 17.28C85.22 16.77 85.32 16.23 85.3 15.67C85.28 14.99 85.4 14.33 85.76 13.74C86.24 12.96 86.26 12.08 86.42 11.22C86.61 10.22 87.1 9.42 87.96 8.86C88.18 8.72 88.41 8.64 88.68 8.66C89.19 8.7 89.68 8.54 90.18 8.46C91.05 8.32 91.93 8.26 92.78 8.54C93.42 8.75 94.02 9.09 94.32 9.74C94.53 10.2 94.57 10.72 94.57 11.22C94.58 12.26 94.59 13.3 94.57 14.34C94.57 15.02 94.64 15.67 94.83 16.32C95.13 17.39 95.06 18.47 94.8 19.54C94.65 20.16 94.65 20.77 94.82 21.38C95.16 22.56 95.32 23.76 95.27 25C95.22 26.18 95.26 27.36 95.27 28.54C95.27 28.81 95.21 29.1 95.58 29.46L95.6 29.5ZM93.77 14.04C93.79 13.16 93.77 12.1 93.65 11.04C93.6 10.59 93.42 10.23 93.05 10C92.4 9.6 91.7 9.4 90.94 9.56C90.26 9.71 89.58 9.85 88.89 9.8C88.36 9.76 88.03 10.05 87.9 10.5C87.69 11.2 87.36 11.86 87.21 12.59C87.01 13.51 86.85 14.44 86.43 15.31C86.23 15.72 86.18 16.19 86.14 16.66C86.08 17.37 85.98 18.1 85.61 18.72C85.36 19.13 85.22 19.57 85.2 20.02C85.16 20.86 84.99 21.67 84.78 22.47C84.51 23.52 84.2 24.56 84.11 25.64C84.05 26.36 83.97 27.07 83.69 27.73C83.45 28.29 83.35 28.87 83.24 29.46C83.09 30.25 82.99 31.06 82.66 31.8C82.44 32.29 82.33 32.8 82.27 33.33C82.17 34.22 82.09 35.12 81.89 35.99C81.48 37.79 81.18 39.6 81.01 41.44C80.96 42.01 80.88 42.59 80.6 43.11C80.46 43.38 80.36 43.65 80.3 43.94C80.21 44.39 80.13 44.84 80.05 45.3C79.91 46.04 79.84 46.8 79.36 47.45C79.16 47.72 79.11 48.09 79.09 48.44C79.03 49.13 78.87 49.81 78.66 50.47C78.56 50.78 78.36 51.05 78.29 51.36C77.96 52.72 77.96 54.1 77.99 55.49C77.99 55.8 78.1 56.09 78.34 56.29C78.97 56.83 79.65 57.19 80.54 57.12C81.61 57.04 82.47 56.39 82.74 55.36C82.83 55.03 82.82 54.64 83.07 54.39C83.6 53.84 83.69 53.17 83.69 52.47C83.69 52.02 83.76 51.56 84.03 51.22C84.52 50.63 84.72 49.92 84.94 49.22C84.97 49.13 84.97 49.03 85.03 48.96C85.44 48.42 85.51 47.77 85.64 47.14C85.75 46.65 85.78 46.13 86.02 45.67C86.39 44.97 86.58 44.21 86.76 43.45C86.83 43.14 86.88 42.79 87.11 42.55C87.6 42.04 87.69 41.42 87.71 40.76C87.72 40.32 87.83 39.89 87.98 39.48C88.1 39.15 88.44 38.93 88.72 38.95C88.99 38.97 89.3 39.27 89.35 39.6C89.42 40.15 89.54 40.69 89.5 41.25C89.45 42 89.58 42.72 89.81 43.43C89.97 43.91 90.05 44.41 90.08 44.92C90.16 46.3 90.26 47.68 90.36 49.06C90.38 49.36 90.41 49.67 90.53 49.94C91.12 51.27 91.14 52.67 91.16 54.08C91.16 54.77 91.15 55.47 91.19 56.16C91.24 57.01 91.3 57.89 92.21 58.35C92.25 58.37 92.28 58.41 92.31 58.44C92.99 59.13 93.84 59.26 94.74 59.15C95.13 59.1 95.48 58.91 95.69 58.53C95.85 58.25 96 57.95 96.22 57.72C96.71 57.24 96.79 56.63 96.84 56.01C96.91 55.2 97.04 54.41 97.4 53.67C97.58 53.29 97.64 52.88 97.7 52.47C97.81 51.62 97.9 50.77 98.28 49.99C98.56 49.4 98.78 48.81 98.87 48.16C98.95 47.65 98.91 47.15 98.94 46.64C98.98 46.14 98.97 45.61 99.27 45.18C99.52 44.82 99.59 44.44 99.65 44.02C99.83 42.58 100.03 41.14 100.4 39.74C100.52 39.3 100.72 38.87 100.74 38.4C100.78 37.31 101.03 36.26 101.27 35.2C101.35 34.84 101.45 34.49 101.45 34.11C101.45 32.93 101.71 31.78 101.8 30.61C101.86 29.85 102.02 29.11 102.01 28.34C102.01 27.85 102.01 27.37 102.01 26.88C102.01 26.53 102.1 26.2 102.3 25.9C102.5 25.6 102.8 25.44 103.12 25.52C103.45 25.6 103.64 25.89 103.64 26.26C103.64 26.77 103.65 27.28 103.64 27.79C103.64 28.14 103.66 28.49 103.8 28.81C104.1 29.53 104.14 30.29 104.17 31.05C104.22 32.13 104.24 33.22 104.29 34.3C104.37 36.05 104.54 37.8 104.47 39.56C104.44 40.25 104.47 40.95 104.63 41.63C104.73 42.06 105 42.43 105.02 42.88C105.11 44.72 105.34 46.56 105.3 48.41C105.27 49.52 105.45 50.62 105.47 51.73C105.48 52.34 105.66 52.96 105.8 53.55C106.12 54.9 106.15 56.29 106.41 57.65C106.58 58.53 106.64 59.43 106.73 60.32C106.79 60.95 106.75 61.61 106.99 62.23C107.4 63.32 107.56 64.46 107.56 65.62C107.56 66.36 107.59 67.12 107.84 67.8C108.12 68.55 108.28 69.3 108.32 70.08C108.37 71.16 108.67 72.22 108.65 73.31C108.63 74.21 108.83 75.1 108.93 75.99C108.95 76.21 109.06 76.43 109.14 76.65C109.32 77.11 109.65 77.35 110.14 77.36C111.25 77.36 112.36 77.39 113.47 77.37C114.03 77.37 114.24 77.17 114.22 76.61C114.18 75.67 114.13 74.72 114.01 73.78C113.93 73.12 113.79 72.46 113.81 71.79C113.83 71.14 113.75 70.48 113.57 69.88C113.21 68.68 113.04 67.45 112.98 66.21C112.95 65.5 112.81 64.79 112.79 64.07C112.79 63.71 112.72 63.32 112.56 63C112.27 62.4 112.15 61.77 112.04 61.14C111.95 60.62 111.9 60.08 112.1 59.57C112.39 58.8 112.92 58.72 113.44 59.33C113.51 59.42 113.58 59.51 113.64 59.61C113.81 59.91 114.08 60.08 114.41 60.15C114.92 60.26 115.33 60.55 115.76 60.81C116.65 61.33 117.55 61.87 118.57 62.1C119.23 62.25 119.86 62.45 120.37 62.92C120.42 62.97 120.48 63.01 120.54 63.03C121.65 63.28 122.66 63.79 123.68 64.27C123.7 64.27 123.72 64.29 123.75 64.29C124.12 64.31 124.4 64.53 124.67 64.74C125.16 65.15 125.74 65.35 126.33 65.56C126.9 65.77 127.51 65.74 128.08 65.89C128.83 66.08 129.58 66.13 130.34 66.12C130.69 66.12 131.04 66.1 131.38 66.14C132.85 66.29 134.32 66.42 135.8 66.41C135.96 66.41 136.13 66.41 136.28 66.44C137.57 66.7 138.85 66.99 140.16 67.12C141.75 67.28 143.34 67.37 144.91 67.05C145.59 66.91 146.26 66.77 146.96 66.8C147.18 66.81 147.37 66.74 147.56 66.66C148.18 66.38 148.85 66.33 149.51 66.23C150.38 66.11 151.28 66.06 152.09 65.78C153.43 65.31 154.8 65.27 156.17 65.17C157.25 65.09 158.32 64.97 159.38 64.72C160.75 64.4 161.92 63.66 163.13 63C163.29 62.91 163.41 62.76 163.54 62.63C164.07 62.08 164.66 61.6 165.32 61.22C165.56 61.08 165.77 60.91 165.96 60.71C166.39 60.26 166.8 59.76 167.32 59.45C168.03 59.02 168.56 58.42 169.14 57.87C169.31 57.71 169.46 57.51 169.66 57.42C170.52 57.04 171.07 56.31 171.71 55.69C172.16 55.26 172.6 54.81 173.05 54.38C173.26 54.17 173.6 54.08 173.73 53.8C174.06 53.09 174.55 52.47 174.75 51.7C175.1 50.34 175.4 48.97 175.65 47.6C175.79 46.83 175.85 46.05 175.92 45.27C175.96 44.88 175.98 44.46 176.22 44.15C176.52 43.76 176.59 43.31 176.62 42.85C176.7 41.91 176.75 40.96 176.79 40.02C176.82 39.25 177.02 38.49 177.25 37.73C177.59 36.59 177.77 35.39 177.04 34.27C176.92 34.08 176.81 33.86 176.78 33.64C176.66 32.67 176.08 31.9 175.54 31.21C174.8 30.27 174.78 29.03 174.02 28.14C173.99 28.11 174 28.05 173.99 28.01C173.86 27.49 173.63 27.02 173.27 26.61C172.97 26.26 172.76 25.85 172.67 25.38C172.49 24.39 171.73 23.65 171.5 22.67C171.49 22.61 171.42 22.56 171.37 22.51C170.66 21.65 170.12 20.69 169.71 19.66C169.51 19.15 169.29 18.65 168.85 18.35C168.19 17.89 167.77 17.22 167.21 16.68C167.01 16.49 166.87 16.23 166.65 16.07C166.18 15.73 165.87 15.29 165.65 14.77C165.56 14.56 165.45 14.35 165.26 14.2C163.87 13.09 162.72 11.72 161.43 10.5C160.95 10.04 160.57 9.45 159.95 9.16C159.28 8.86 158.59 8.61 157.89 8.4C157.19 8.19 156.46 8.05 155.74 7.9C154.64 7.68 153.57 7.29 152.47 7.03C151.11 6.7 149.87 5.97 148.41 5.94C147.62 5.92 146.79 5.83 146.1 6.17C144.84 6.79 143.39 6.96 142.25 7.83C142.2 7.87 142.13 7.9 142.06 7.91C141.1 8.1 140.5 8.85 139.78 9.4C139.06 9.95 138.45 10.67 137.84 11.35C137.49 11.74 137.09 11.93 136.6 12.01C136.03 12.11 135.44 12.13 134.91 12.35C133.76 12.82 132.56 13.01 131.33 12.97C130.63 12.94 129.96 13.17 129.26 13.14C129.07 13.14 128.9 13.22 128.75 13.34C128.24 13.76 127.63 13.98 127.03 14.21C126.83 14.28 126.64 14.36 126.49 14.51C126.18 14.81 125.77 14.96 125.37 15.02C125 15.08 124.73 15.24 124.46 15.46C123.8 16.01 122.96 16.27 122.3 16.81C122.21 16.88 122.1 16.92 121.99 16.95C120.33 17.52 118.79 18.34 117.32 19.27C116.71 19.66 116.1 20 115.4 20.17C115.1 20.24 114.8 20.37 114.67 20.65C114.38 21.29 113.93 21.81 113.58 22.4C113.08 23.25 112.4 23.98 111.99 24.9C111.85 25.22 111.6 25.51 111.47 25.86C111.18 26.61 110.49 27.06 110.11 27.75C109.9 28.13 109.38 28 109.17 27.58C109.05 27.34 109.07 27.08 109.07 26.83C109.03 24.45 109.07 22.07 108.95 19.69C108.83 17.38 108.92 15.07 108.91 12.75C108.91 12.54 108.91 12.33 108.89 12.13C108.74 11.06 108.63 9.98 108.65 8.89C108.68 7.62 108.57 6.34 108.69 5.08C108.81 3.92 108.74 2.77 108.8 1.62C108.82 1.22 108.63 1.02 108.25 0.959996C108.07 0.929996 107.89 0.899996 107.7 0.889996C106.54 0.879996 105.39 0.889996 104.23 0.869996C103.74 0.859996 103.46 1.06 103.25 1.48C102.89 2.22 102.43 2.93 101.96 3.59C101.5 4.24 101.25 4.9 101.12 5.66C101.07 5.98 100.96 6.28 100.75 6.54C100.43 6.93 100.29 7.38 100.3 7.89C100.31 8.34 100.19 8.78 99.9 9.12C99.55 9.52 99.36 9.98 99.22 10.47C99.02 11.16 98.82 11.84 98.63 12.53C98.4 13.4 98.19 14.27 98.23 15.19C98.27 16.19 98.12 17.17 97.97 18.15C97.84 18.99 97.58 19.81 97.65 20.68C97.66 20.81 97.59 20.95 97.57 21.09C97.44 21.93 97.22 22.76 97.24 23.62C97.28 25.15 96.94 26.64 96.8 28.15C96.78 28.4 96.69 28.64 96.68 28.9C96.65 29.54 96.62 30.19 96.52 30.83C96.3 32.2 96.08 33.56 96.14 34.95C96.16 35.31 96.06 35.63 95.94 35.96C95.86 36.18 95.72 36.28 95.47 36.3C95.02 36.32 94.7 36.07 94.63 35.57C94.59 35.32 94.57 35.07 94.54 34.82C94.45 33.97 94.24 33.13 94.38 32.27C94.54 31.25 94.55 30.25 94.25 29.26C94.1 28.77 94.06 28.27 94.06 27.76C94.08 26.4 94.06 25.03 94.06 23.67C94.06 23.3 94.03 22.94 93.97 22.57C93.78 21.54 93.69 20.5 93.83 19.47C93.93 18.71 93.99 17.94 93.91 17.19C93.8 16.2 93.79 15.21 93.78 14.03L93.77 14.04Z" fill="black"></path></svg>